<svg xmlns="http://www.w3.org/2000/svg" viewBox="0 0 1280 720" font-family="'Segoe UI', 'Helvetica Neue', sans-serif">
  <defs>
    <marker id="arr" markerWidth="8" markerHeight="6" refX="8" refY="3" orient="auto">
      <polygon points="0 0, 8 3, 0 6" fill="#7a8a9e"/>
    </marker>
    <marker id="arrTeal" markerWidth="8" markerHeight="6" refX="8" refY="3" orient="auto">
      <polygon points="0 0, 8 3, 0 6" fill="#1a8a7d"/>
    </marker>
  </defs>

  <!-- Background -->
  <rect width="1280" height="720" fill="#f7f8fa"/>

  <!-- Title -->
  <text x="640" y="38" text-anchor="middle" fill="#1e293b" font-size="21" font-weight="700">Reference Architecture</text>
  <text x="640" y="56" text-anchor="middle" fill="#64748b" font-size="12">Fabric Capacities segmented by Business Unit · Function · Environment</text>

  <!-- ===== ENTRA ID BAR ===== -->
  <rect x="420" y="72" width="440" height="44" rx="22" fill="#0078d4"/>
  <text x="515" y="99" fill="#fff" font-size="14" font-weight="600">Microsoft Entra ID</text>
  <text x="685" y="99" fill="#cce0f5" font-size="10">Conditional Access · PIM · Service Principals</text>
  <!-- shield -->
  <g transform="translate(442, 83)">
    <path d="M10 1L3 4.2v5c0 4.6 3.2 8.9 7 10 3.8-1.1 7-5.4 7-10V4.2L10 1z" fill="none" stroke="#fff" stroke-width="1.3"/>
    <polyline points="7,10 9.5,12.5 13.5,8" fill="none" stroke="#fff" stroke-width="1.3"/>
  </g>

  <!-- Arrow down -->
  <line x1="640" y1="116" x2="640" y2="138" stroke="#7a8a9e" stroke-width="1.2" marker-end="url(#arr)" stroke-dasharray="3,2"/>

  <!-- ===== CAPACITY SECTION LABEL ===== -->
  <text x="78" y="165" fill="#94a3b8" font-size="9" font-weight="600" letter-spacing="2.5">CAPACITIES</text>

  <!-- ===== SALES CAPACITY ===== -->
  <rect x="78" y="148" width="366" height="238" rx="8" fill="#fff" stroke="#d4d9e0" stroke-width="1"/>
  <rect x="78" y="148" width="366" height="34" rx="8" fill="#d95319"/>
  <rect x="78" y="170" width="366" height="12" fill="#d95319"/>
  <text x="96" y="171" fill="#fff" font-size="12" font-weight="700">Sales · Analytics · Prod</text>
  <text x="404" y="171" fill="#fde0d0" font-size="9" text-anchor="end">F64 · East US</text>

  <!-- WS 1 -->
  <rect x="94" y="196" width="160" height="88" rx="5" fill="#f1f4f8" stroke="#c9d1dc" stroke-width="0.8"/>
  <text x="104" y="212" fill="#374151" font-size="9" font-weight="600">Sales DW</text>
  <rect x="104" y="222" width="60" height="18" rx="3" fill="#dbeafe" stroke="#93c5fd" stroke-width="0.6"/>
  <text x="134" y="234" text-anchor="middle" fill="#2563eb" font-size="7.5">Lakehouse</text>
  <rect x="170" y="222" width="60" height="18" rx="3" fill="#fde2e2" stroke="#fca5a5" stroke-width="0.6"/>
  <text x="200" y="234" text-anchor="middle" fill="#c0392b" font-size="7.5">Warehouse</text>
  <rect x="104" y="246" width="60" height="18" rx="3" fill="#d5f5e3" stroke="#82d4a0" stroke-width="0.6"/>
  <text x="134" y="258" text-anchor="middle" fill="#1a7a42" font-size="7.5">Pipeline</text>
  <rect x="170" y="246" width="60" height="18" rx="3" fill="#fef3c7" stroke="#f6c544" stroke-width="0.6"/>
  <text x="200" y="258" text-anchor="middle" fill="#92600a" font-size="7.5">Sem Model</text>

  <!-- WS 2 -->
  <rect x="268" y="196" width="160" height="88" rx="5" fill="#f1f4f8" stroke="#c9d1dc" stroke-width="0.8"/>
  <text x="278" y="212" fill="#374151" font-size="9" font-weight="600">Sales Reports</text>
  <rect x="278" y="222" width="60" height="18" rx="3" fill="#fef3c7" stroke="#f6c544" stroke-width="0.6"/>
  <text x="308" y="234" text-anchor="middle" fill="#92600a" font-size="7.5">Sem Model</text>
  <rect x="344" y="222" width="60" height="18" rx="3" fill="#ede9fe" stroke="#b8a9e8" stroke-width="0.6"/>
  <text x="374" y="234" text-anchor="middle" fill="#6b21a8" font-size="7.5">Report</text>
  <rect x="278" y="246" width="60" height="18" rx="3" fill="#ede9fe" stroke="#b8a9e8" stroke-width="0.6"/>
  <text x="308" y="258" text-anchor="middle" fill="#6b21a8" font-size="7.5">Report</text>
  <rect x="344" y="246" width="60" height="18" rx="3" fill="#ede9fe" stroke="#b8a9e8" stroke-width="0.6"/>
  <text x="374" y="258" text-anchor="middle" fill="#6b21a8" font-size="7.5">Dashboard</text>

  <!-- Tags row -->
  <g transform="translate(94, 300)">
    <rect width="50" height="15" rx="7" fill="#eef2ff" stroke="#a5b4fc" stroke-width="0.6"/>
    <text x="25" y="10.5" text-anchor="middle" fill="#4338ca" font-size="7">Sales</text>
    <rect x="56" width="64" height="15" rx="7" fill="#eef2ff" stroke="#a5b4fc" stroke-width="0.6"/>
    <text x="88" y="10.5" text-anchor="middle" fill="#4338ca" font-size="7">SALES-001</text>
    <rect x="126" width="40" height="15" rx="7" fill="#dcfce7" stroke="#86efac" stroke-width="0.6"/>
    <text x="146" y="10.5" text-anchor="middle" fill="#166534" font-size="7">Prod</text>
    <rect x="172" width="66" height="15" rx="7" fill="#fef2f2" stroke="#fca5a5" stroke-width="0.6"/>
    <text x="205" y="10.5" text-anchor="middle" fill="#991b1b" font-size="7">Confidential</text>
  </g>
  <text x="94" y="335" fill="#94a3b8" font-size="7.5">BU · Cost Center · Env · Data Classification</text>

  <!-- ===== FINANCE CAPACITY ===== -->
  <rect x="458" y="148" width="366" height="238" rx="8" fill="#fff" stroke="#d4d9e0" stroke-width="1"/>
  <rect x="458" y="148" width="366" height="34" rx="8" fill="#2563eb"/>
  <rect x="458" y="170" width="366" height="12" fill="#2563eb"/>
  <text x="476" y="171" fill="#fff" font-size="12" font-weight="700">Finance · ETL · Prod</text>
  <text x="784" y="171" fill="#bfdbfe" font-size="9" text-anchor="end">F32 · East US</text>

  <rect x="474" y="196" width="160" height="88" rx="5" fill="#f1f4f8" stroke="#c9d1dc" stroke-width="0.8"/>
  <text x="484" y="212" fill="#374151" font-size="9" font-weight="600">Finance Ingest</text>
  <rect x="484" y="222" width="60" height="18" rx="3" fill="#dbeafe" stroke="#93c5fd" stroke-width="0.6"/>
  <text x="514" y="234" text-anchor="middle" fill="#2563eb" font-size="7.5">Lakehouse</text>
  <rect x="550" y="222" width="60" height="18" rx="3" fill="#d5f5e3" stroke="#82d4a0" stroke-width="0.6"/>
  <text x="580" y="234" text-anchor="middle" fill="#1a7a42" font-size="7.5">Pipeline</text>
  <rect x="484" y="246" width="60" height="18" rx="3" fill="#d5f5e3" stroke="#82d4a0" stroke-width="0.6"/>
  <text x="514" y="258" text-anchor="middle" fill="#1a7a42" font-size="7.5">Notebook</text>
  <rect x="550" y="246" width="60" height="18" rx="3" fill="#fde2e2" stroke="#fca5a5" stroke-width="0.6"/>
  <text x="580" y="258" text-anchor="middle" fill="#c0392b" font-size="7.5">Dataflow</text>

  <rect x="648" y="196" width="160" height="88" rx="5" fill="#f1f4f8" stroke="#c9d1dc" stroke-width="0.8"/>
  <text x="658" y="212" fill="#374151" font-size="9" font-weight="600">Finance DW</text>
  <rect x="658" y="222" width="60" height="18" rx="3" fill="#fde2e2" stroke="#fca5a5" stroke-width="0.6"/>
  <text x="688" y="234" text-anchor="middle" fill="#c0392b" font-size="7.5">Warehouse</text>
  <rect x="724" y="222" width="60" height="18" rx="3" fill="#fef3c7" stroke="#f6c544" stroke-width="0.6"/>
  <text x="754" y="234" text-anchor="middle" fill="#92600a" font-size="7.5">Sem Model</text>
  <rect x="658" y="246" width="60" height="18" rx="3" fill="#ede9fe" stroke="#b8a9e8" stroke-width="0.6"/>
  <text x="688" y="258" text-anchor="middle" fill="#6b21a8" font-size="7.5">Report</text>

  <g transform="translate(474, 300)">
    <rect width="56" height="15" rx="7" fill="#eef2ff" stroke="#a5b4fc" stroke-width="0.6"/>
    <text x="28" y="10.5" text-anchor="middle" fill="#4338ca" font-size="7">Finance</text>
    <rect x="62" width="56" height="15" rx="7" fill="#eef2ff" stroke="#a5b4fc" stroke-width="0.6"/>
    <text x="90" y="10.5" text-anchor="middle" fill="#4338ca" font-size="7">FIN-042</text>
    <rect x="124" width="40" height="15" rx="7" fill="#dcfce7" stroke="#86efac" stroke-width="0.6"/>
    <text x="144" y="10.5" text-anchor="middle" fill="#166534" font-size="7">Prod</text>
    <rect x="170" width="60" height="15" rx="7" fill="#fef2f2" stroke="#fca5a5" stroke-width="0.6"/>
    <text x="200" y="10.5" text-anchor="middle" fill="#991b1b" font-size="7">Restricted</text>
  </g>
  <text x="474" y="335" fill="#94a3b8" font-size="7.5">BU · Cost Center · Env · Data Classification</text>

  <!-- ===== MARKETING CAPACITY (DEV) ===== -->
  <rect x="838" y="148" width="366" height="238" rx="8" fill="#fff" stroke="#d4d9e0" stroke-width="1"/>
  <rect x="838" y="148" width="366" height="34" rx="8" fill="#15803d"/>
  <rect x="838" y="170" width="366" height="12" fill="#15803d"/>
  <text x="856" y="171" fill="#fff" font-size="12" font-weight="700">Marketing · Reporting · Dev</text>
  <text x="1164" y="171" fill="#bbf7d0" font-size="9" text-anchor="end">F2 · East US</text>

  <rect x="854" y="196" width="160" height="88" rx="5" fill="#f1f4f8" stroke="#c9d1dc" stroke-width="0.8"/>
  <text x="864" y="212" fill="#374151" font-size="9" font-weight="600">Mkt Dev</text>
  <rect x="864" y="222" width="60" height="18" rx="3" fill="#dbeafe" stroke="#93c5fd" stroke-width="0.6"/>
  <text x="894" y="234" text-anchor="middle" fill="#2563eb" font-size="7.5">Lakehouse</text>
  <rect x="930" y="222" width="60" height="18" rx="3" fill="#d5f5e3" stroke="#82d4a0" stroke-width="0.6"/>
  <text x="960" y="234" text-anchor="middle" fill="#1a7a42" font-size="7.5">Notebook</text>
  <rect x="864" y="246" width="60" height="18" rx="3" fill="#ede9fe" stroke="#b8a9e8" stroke-width="0.6"/>
  <text x="894" y="258" text-anchor="middle" fill="#6b21a8" font-size="7.5">Report</text>

  <rect x="1028" y="196" width="160" height="88" rx="5" fill="#f1f4f8" stroke="#c9d1dc" stroke-width="0.8"/>
  <text x="1038" y="212" fill="#374151" font-size="9" font-weight="600">Mkt Sandbox</text>
  <rect x="1038" y="222" width="60" height="18" rx="3" fill="#dbeafe" stroke="#93c5fd" stroke-width="0.6"/>
  <text x="1068" y="234" text-anchor="middle" fill="#2563eb" font-size="7.5">Lakehouse</text>
  <rect x="1104" y="222" width="60" height="18" rx="3" fill="#fef3c7" stroke="#f6c544" stroke-width="0.6"/>
  <text x="1134" y="234" text-anchor="middle" fill="#92600a" font-size="7.5">Sem Model</text>
  <rect x="1038" y="246" width="60" height="18" rx="3" fill="#d5f5e3" stroke="#82d4a0" stroke-width="0.6"/>
  <text x="1068" y="258" text-anchor="middle" fill="#1a7a42" font-size="7.5">Notebook</text>

  <g transform="translate(854, 300)">
    <rect width="66" height="15" rx="7" fill="#eef2ff" stroke="#a5b4fc" stroke-width="0.6"/>
    <text x="33" y="10.5" text-anchor="middle" fill="#4338ca" font-size="7">Marketing</text>
    <rect x="72" width="60" height="15" rx="7" fill="#eef2ff" stroke="#a5b4fc" stroke-width="0.6"/>
    <text x="102" y="10.5" text-anchor="middle" fill="#4338ca" font-size="7">MKT-017</text>
    <rect x="138" width="36" height="15" rx="7" fill="#fef9c3" stroke="#facc15" stroke-width="0.6"/>
    <text x="156" y="10.5" text-anchor="middle" fill="#713f12" font-size="7">Dev</text>
    <rect x="180" width="52" height="15" rx="7" fill="#f0f9ff" stroke="#7dd3fc" stroke-width="0.6"/>
    <text x="206" y="10.5" text-anchor="middle" fill="#075985" font-size="7">Internal</text>
  </g>
  <text x="854" y="335" fill="#94a3b8" font-size="7.5">BU · Cost Center · Env · Data Classification</text>

  <!-- ===== SIZING CALLOUT ===== -->
  <text x="640" y="360" text-anchor="middle" fill="#64748b" font-size="9">Right-size per workload: F2 for Dev sandboxes → F64+ for production analytics</text>

  <!-- ===== NETWORKING SECTION ===== -->
  <rect x="78" y="385" width="555" height="125" rx="8" fill="#f0fdfa" stroke="#99e4da" stroke-width="1"/>
  <g transform="translate(96, 400)">
    <circle cx="7" cy="7" r="6" fill="none" stroke="#0d9488" stroke-width="1.1"/>
    <circle cx="7" cy="7" r="2.5" fill="none" stroke="#0d9488" stroke-width="0.8"/>
    <line x1="7" y1="1" x2="7" y2="13" stroke="#0d9488" stroke-width="0.6"/>
    <path d="M1.5 5 Q7 3.5 12.5 5" fill="none" stroke="#0d9488" stroke-width="0.6"/>
    <path d="M1.5 9 Q7 10.5 12.5 9" fill="none" stroke="#0d9488" stroke-width="0.6"/>
  </g>
  <text x="120" y="411" fill="#0f766e" font-size="13" font-weight="700">Private Networking</text>

  <rect x="96" y="424" width="160" height="36" rx="5" fill="#fff" stroke="#99e4da" stroke-width="0.7"/>
  <text x="106" y="440" fill="#134e4a" font-size="9" font-weight="600">Private Link</text>
  <text x="106" y="452" fill="#64748b" font-size="7.5">Inbound to Fabric endpoints</text>

  <rect x="268" y="424" width="180" height="36" rx="5" fill="#fff" stroke="#99e4da" stroke-width="0.7"/>
  <text x="278" y="440" fill="#134e4a" font-size="9" font-weight="600">Managed Private Endpoints</text>
  <text x="278" y="452" fill="#64748b" font-size="7.5">Outbound to Azure PaaS services</text>

  <rect x="460" y="424" width="158" height="36" rx="5" fill="#fff" stroke="#99e4da" stroke-width="0.7"/>
  <text x="470" y="440" fill="#134e4a" font-size="9" font-weight="600">VNet Data Gateway</text>
  <text x="470" y="452" fill="#64748b" font-size="7.5">On-prem &amp; IaaS sources</text>

  <!-- Source labels with arrows -->
  <text x="140" y="480" fill="#64748b" font-size="8">↑ Corporate users</text>
  <text x="320" y="480" fill="#64748b" font-size="8">↑ Azure SQL · ADLS · Key Vault</text>
  <text x="496" y="480" fill="#64748b" font-size="8">↑ SQL Server · Oracle · SAP</text>

  <text x="96" y="500" fill="#94a3b8" font-size="7.5" font-style="italic">Not all Fabric experiences support private networking equally — know the gaps</text>

  <!-- ===== GOVERNANCE SECTION ===== -->
  <rect x="647" y="385" width="557" height="125" rx="8" fill="#faf5ff" stroke="#d4bffc" stroke-width="1"/>
  <g transform="translate(665, 399)">
    <circle cx="8" cy="8" r="3.5" fill="none" stroke="#7c3aed" stroke-width="1.1"/>
    <rect x="7" y="0.5" width="2" height="3.5" rx="0.8" fill="#7c3aed"/>
    <rect x="7" y="12" width="2" height="3.5" rx="0.8" fill="#7c3aed"/>
    <rect x="0.5" y="7" width="3.5" height="2" rx="0.8" fill="#7c3aed"/>
    <rect x="12" y="7" width="3.5" height="2" rx="0.8" fill="#7c3aed"/>
  </g>
  <text x="690" y="411" fill="#5b21b6" font-size="13" font-weight="700">Governance &amp; Monitoring</text>

  <rect x="665" y="424" width="126" height="36" rx="5" fill="#fff" stroke="#d4bffc" stroke-width="0.7"/>
  <text x="675" y="440" fill="#4c1d95" font-size="9" font-weight="600">Naming Standard</text>
  <text x="675" y="452" fill="#64748b" font-size="7.5">{BU}-{Fn}-{Env}-{Region}</text>

  <rect x="799" y="424" width="108" height="36" rx="5" fill="#fff" stroke="#d4bffc" stroke-width="0.7"/>
  <text x="809" y="440" fill="#4c1d95" font-size="9" font-weight="600">Tagging</text>
  <text x="809" y="452" fill="#64748b" font-size="7.5">Owner · CC · Env · Class</text>

  <rect x="915" y="424" width="134" height="36" rx="5" fill="#fff" stroke="#d4bffc" stroke-width="0.7"/>
  <text x="925" y="440" fill="#4c1d95" font-size="9" font-weight="600">API Automation</text>
  <text x="925" y="452" fill="#64748b" font-size="7.5">Enforce via CI/CD &amp; scripts</text>

  <rect x="1057" y="424" width="131" height="36" rx="5" fill="#fff" stroke="#d4bffc" stroke-width="0.7"/>
  <text x="1067" y="440" fill="#4c1d95" font-size="9" font-weight="600">Audit → Sentinel</text>
  <text x="1067" y="452" fill="#64748b" font-size="7.5">Activity logs to Log Analytics</text>

  <!-- Gaps warning -->
  <rect x="665" y="473" width="523" height="26" rx="5" fill="#fffbeb" stroke="#f59e0b" stroke-width="0.7"/>
  <text x="683" y="490" fill="#b45309" font-size="9" font-weight="600">⚠  Gaps today:</text>
  <text x="780" y="490" fill="#78716c" font-size="8.5">No Azure Policy · Coarse RBAC (Admin / Member / Contributor / Viewer) · Limited audit events</text>

  <!-- ===== ONELAKE BAR ===== -->
  <rect x="78" y="530" width="1126" height="50" rx="8" fill="#f0fdfa" stroke="#5eead4" stroke-width="1.2"/>
  <text x="640" y="555" text-anchor="middle" fill="#0f766e" font-size="16" font-weight="700">OneLake</text>
  <text x="640" y="571" text-anchor="middle" fill="#5eead4" font-size="9">Unified storage · Delta / Parquet · Shortcuts · V-Order optimized</text>

  <!-- ===== GIT / CI-CD BAR ===== -->
  <rect x="78" y="594" width="1126" height="36" rx="7" fill="#eef2ff" stroke="#a5b4fc" stroke-width="0.8"/>
  <text x="640" y="617" text-anchor="middle" fill="#4338ca" font-size="11" font-weight="600">Git Integration &amp; CI/CD</text>
  <text x="310" y="617" fill="#6b7280" font-size="8.5">Workspace ↔ Git sync</text>
  <text x="910" y="617" fill="#6b7280" font-size="8.5">Pipeline definitions &amp; models in source control</text>

  <!-- ===== LEGEND ===== -->
  <g transform="translate(78, 650)">
    <rect width="10" height="10" rx="2" fill="#dbeafe" stroke="#93c5fd" stroke-width="0.6"/>
    <text x="16" y="9" fill="#475569" font-size="8">Lakehouse</text>
    <rect x="82" width="10" height="10" rx="2" fill="#fde2e2" stroke="#fca5a5" stroke-width="0.6"/>
    <text x="98" y="9" fill="#475569" font-size="8">Warehouse</text>
    <rect x="168" width="10" height="10" rx="2" fill="#d5f5e3" stroke="#82d4a0" stroke-width="0.6"/>
    <text x="184" y="9" fill="#475569" font-size="8">Pipeline / Notebook</text>
    <rect x="288" width="10" height="10" rx="2" fill="#fef3c7" stroke="#f6c544" stroke-width="0.6"/>
    <text x="304" y="9" fill="#475569" font-size="8">Semantic Model</text>
    <rect x="394" width="10" height="10" rx="2" fill="#ede9fe" stroke="#b8a9e8" stroke-width="0.6"/>
    <text x="410" y="9" fill="#475569" font-size="8">Report / Dashboard</text>
  </g>
</svg>